<?xml version="1.0" standalone="no"?><!DOCTYPE svg PUBLIC "-//W3C//DTD SVG 1.1//EN" "http://www.w3.org/Graphics/SVG/1.1/DTD/svg11.dtd"><svg t="1486698317614" class="icon" style="" viewBox="0 0 1024 1024" version="1.1" xmlns="http://www.w3.org/2000/svg" p-id="1251" xmlns:xlink="http://www.w3.org/1999/xlink" width="48" height="48"><defs><style type="text/css"></style></defs><path d="M525.40928 12.22144v320.44544s-124.78464-12.032-161.81248-30.04928-61.78816-50.06336-61.78816-50.06336 31.232-28.03712 38.01088-28.03712-35.98848-92.12928-22.61504-108.14976c13.37344-16.02048 127.99488-8.0128 130.7648 8.0128S423.8336 68.3008 525.40928 12.22144z" fill="#30C03F" p-id="1252"></path><path d="M525.40928 12.22144v320.44544s124.78464-12.032 161.81248-30.04928c37.02784-18.01728 61.78816-50.06336 61.78816-50.06336s-31.232-28.03712-38.01088-28.03712 35.98848-92.12928 22.61504-108.14976c-13.37344-16.02048-127.99488-8.0128-130.7648 8.0128s24.1408-56.07936-77.44-112.15872z" fill="#97CF43" p-id="1253"></path><path d="M523.77088 633.52832m-382.79168 0a382.79168 382.79168 0 1 0 765.58336 0 382.79168 382.79168 0 1 0-765.58336 0Z" fill="#FFE000" p-id="1254"></path><path d="M898.31936 553.90208l-62.8224 48.75776-111.91296-95.12448 116.18304-90.17344a384.35328 384.35328 0 0 0-34.4576-43.21792l-124.7488 96.82432-109.84448-93.36832 116.39296-90.33728a379.94496 379.94496 0 0 0-61.02016-22.6048l-98.40128 76.37504-93.62432-79.59552a379.66336 379.66336 0 0 0-61.37344 20.37248l110.39232 93.83424-113.88928 88.39168-117.3504-99.74784a385.05472 385.05472 0 0 0-35.95776 41.97376l108.70272 92.40064-116.03456 90.0608-56.1408-47.7184a382.6944 382.6944 0 0 0-10.15296 63.90784l21.6832 18.432-22.67136 17.59744a384.09728 384.09728 0 0 0 6.70208 64.76288l58.99776-45.78816 109.84448 93.36832-114.048 88.51456a383.5392 383.5392 0 0 0 33.37728 44.0576l123.69408-96.00512 111.91296 95.1296-117.90848 91.51488a380.2112 380.2112 0 0 0 59.70944 23.61856l101.2224-78.56128 98.91328 84.07552a380.14464 380.14464 0 0 0 61.37344-20.36736l-115.68128-98.3296 116.03456-90.0608 122.33216 103.98208a384.41984 384.41984 0 0 0 35.66592-42.21952l-113.39264-96.384 113.88928-88.39168 61.42464 52.21376a382.16704 382.16704 0 0 0 10.15296-63.90784l-26.97216-22.92736 27.74528-21.53472a381.73184 381.73184 0 0 0-7.94112-63.80032zM526.1056 412.2112l109.84448 93.36832-113.88928 88.39168-109.83936-93.3632 113.88416-88.3968z m-274.52928 213.07904l116.03456-90.0608 109.84448 93.36832-116.03456 90.0608-109.84448-93.36832z m264.78592 225.06496l-111.91296-95.1296 116.03456-90.0608 111.91296 95.1296-116.03456 90.0608z m160.64-124.68224l-111.91296-95.1296 113.88928-88.39168 111.91296 95.1296-113.88928 88.39168z" fill="#FFFABC" p-id="1255"></path></svg>