<?xml version="1.0" standalone="no"?><!DOCTYPE svg PUBLIC "-//W3C//DTD SVG 1.1//EN" "http://www.w3.org/Graphics/SVG/1.1/DTD/svg11.dtd"><svg t="1486698602223" class="icon" style="" viewBox="0 0 1024 1024" version="1.1" xmlns="http://www.w3.org/2000/svg" p-id="1788" xmlns:xlink="http://www.w3.org/1999/xlink" width="48" height="48"><defs><style type="text/css"></style></defs><path d="M511.85664 150.01088c238.49472 0 431.83104 193.33632 431.83104 431.83104 0 238.49472-193.33632 431.82592-431.83104 431.82592V150.01088z" fill="#ED0000" p-id="1789"></path><path d="M511.85664 150.01088c-238.49472 0-431.83104 193.33632-431.83104 431.83104 0 238.49472 193.33632 431.82592 431.83104 431.82592V150.01088z" fill="#EB4E41" p-id="1790"></path><path d="M483.08224 180.77696c-22.95808-49.54624 21.6064-118.9888 99.54304-155.1104 77.93664-36.11648 159.73376-25.23136 182.69184 24.31488L483.08224 180.77696z" fill="#30C03F" p-id="1791"></path><path d="M483.08224 180.77696c22.95808 49.54624 104.7552 60.43136 182.69184 24.31488 77.93664-36.11648 122.50624-105.56416 99.54304-155.1104L483.08224 180.77696z" fill="#97CF43" p-id="1792"></path><path d="M337.45408 351.32928m-28.01152 0a28.01152 28.01152 0 1 0 56.02304 0 28.01152 28.01152 0 1 0-56.02304 0Z" fill="#770000" p-id="1793"></path><path d="M511.85664 351.32928m-28.01152 0a28.01152 28.01152 0 1 0 56.02304 0 28.01152 28.01152 0 1 0-56.02304 0Z" fill="#770000" p-id="1794"></path><path d="M686.26432 351.32928m-28.01152 0a28.01152 28.01152 0 1 0 56.02304 0 28.01152 28.01152 0 1 0-56.02304 0Z" fill="#770000" p-id="1795"></path><path d="M236.20096 466.58048m-28.01152 0a28.01152 28.01152 0 1 0 56.02304 0 28.01152 28.01152 0 1 0-56.02304 0Z" fill="#770000" p-id="1796"></path><path d="M419.97312 466.58048m-28.01152 0a28.01152 28.01152 0 1 0 56.02304 0 28.01152 28.01152 0 1 0-56.02304 0Z" fill="#770000" p-id="1797"></path><path d="M603.74528 466.58048m-28.01152 0a28.01152 28.01152 0 1 0 56.02304 0 28.01152 28.01152 0 1 0-56.02304 0Z" fill="#770000" p-id="1798"></path><path d="M787.51744 466.58048m-28.01152 0a28.01152 28.01152 0 1 0 56.02304 0 28.01152 28.01152 0 1 0-56.02304 0Z" fill="#770000" p-id="1799"></path><path d="M337.45408 581.8368m-28.01152 0a28.01152 28.01152 0 1 0 56.02304 0 28.01152 28.01152 0 1 0-56.02304 0Z" fill="#770000" p-id="1800"></path><path d="M511.85664 581.8368m-28.01152 0a28.01152 28.01152 0 1 0 56.02304 0 28.01152 28.01152 0 1 0-56.02304 0Z" fill="#770000" p-id="1801"></path><path d="M686.26432 581.8368m-28.01152 0a28.01152 28.01152 0 1 0 56.02304 0 28.01152 28.01152 0 1 0-56.02304 0Z" fill="#770000" p-id="1802"></path><path d="M337.45408 812.34944m-28.01152 0a28.01152 28.01152 0 1 0 56.02304 0 28.01152 28.01152 0 1 0-56.02304 0Z" fill="#770000" p-id="1803"></path><path d="M511.85664 812.34944m-28.01152 0a28.01152 28.01152 0 1 0 56.02304 0 28.01152 28.01152 0 1 0-56.02304 0Z" fill="#770000" p-id="1804"></path><path d="M686.26432 812.34944m-28.01152 0a28.01152 28.01152 0 1 0 56.02304 0 28.01152 28.01152 0 1 0-56.02304 0Z" fill="#770000" p-id="1805"></path><path d="M236.20096 697.09312m-28.01152 0a28.01152 28.01152 0 1 0 56.02304 0 28.01152 28.01152 0 1 0-56.02304 0Z" fill="#770000" p-id="1806"></path><path d="M419.97312 697.09312m-28.01152 0a28.01152 28.01152 0 1 0 56.02304 0 28.01152 28.01152 0 1 0-56.02304 0Z" fill="#770000" p-id="1807"></path><path d="M603.74528 697.09312m-28.01152 0a28.01152 28.01152 0 1 0 56.02304 0 28.01152 28.01152 0 1 0-56.02304 0Z" fill="#770000" p-id="1808"></path><path d="M787.51744 697.09312m-28.01152 0a28.01152 28.01152 0 1 0 56.02304 0 28.01152 28.01152 0 1 0-56.02304 0Z" fill="#770000" p-id="1809"></path></svg>