<?xml version="1.0" standalone="no"?><!DOCTYPE svg PUBLIC "-//W3C//DTD SVG 1.1//EN" "http://www.w3.org/Graphics/SVG/1.1/DTD/svg11.dtd"><svg t="1480822684700" class="icon" style="" viewBox="0 0 1024 1024" version="1.1" xmlns="http://www.w3.org/2000/svg" p-id="7062" xmlns:xlink="http://www.w3.org/1999/xlink" width="64" height="64"><defs><style type="text/css"></style></defs><path d="M771.252067 817.232796c0 33.909297-27.489074 61.398372-61.398372 61.398372-33.911344 0-61.398372-27.489074-61.398372-61.398372s27.487028-61.398372 61.398372-61.398372C743.762993 755.834424 771.252067 783.324522 771.252067 817.232796zM709.853695 704.669114c-62.168921 0-112.563682 50.396807-112.563682 112.563682s50.39476 112.563682 112.563682 112.563682c62.165852 0 112.560612-50.396807 112.560612-112.563682S772.019547 704.669114 709.853695 704.669114z" p-id="7063" fill="#ffffff"></path><path d="M366.00337 817.232796c0 33.909297-27.489074 61.398372-61.398372 61.398372-33.910321 0-61.398372-27.489074-61.398372-61.398372s27.488051-61.398372 61.398372-61.398372C338.512249 755.834424 366.00337 783.324522 366.00337 817.232796zM304.604998 704.669114c-62.166875 0-112.563682 50.396807-112.563682 112.563682s50.396807 112.563682 112.563682 112.563682 112.562659-50.396807 112.562659-112.563682S366.771873 704.669114 304.604998 704.669114z" p-id="7064" fill="#ffffff"></path><path d="M783.504112 161.293523c0 0-617.043405 0-650.810463 0-33.768081 0-59.061141 16.571421-51.507094 51.332109 7.556093 34.760688 73.832566 376.180662 81.089853 410.191266 7.256264 34.009582 34.127262 51.314713 50.239218 51.314713 16.112979 0 512.684592 0 524.93766 0 12.253068 0 57.0616-4.493338 72.040756-50.496068 14.983249-46.00273 47.209208-199.348234 75.839269-323.939857 28.633131-124.592646 30.15888-110.448508 75.187423-178.151469 40.59558-40.414455-12.271488-85.098143-47.066969-45.191248-40.925085 50.655703-59.912531 88.195691-81.673138 192.232163-21.762653 104.037495-50.14405 238.368946-67.11763 295.780517-16.97358 57.411571-48.706305 58.434877-76.328409 58.434877s-409.302013-0.001023-429.771207-0.001023c-20.470217 0-42.383296-12.875239-50.610678-50.396807-8.228405-37.521568-48.312332-262.384919-59.908438-308.779575-11.597129-46.393633 3.067872-51.16531 35.814694-51.16531 32.745798 0 599.644129-0.001023 599.644129-0.001023s20.487613-0.512676 20.487613-25.582655C803.991726 161.805176 783.504112 161.293523 783.504112 161.293523z" p-id="7065" fill="#ffffff"></path><path d="M659.793556 346.614276c0 14.129812-11.449773 25.582655-25.578562 25.582655L327.215972 372.19693c-14.129812 0-25.580608-11.452843-25.580608-25.582655l0 0c0-14.128789 11.450796-25.582655 25.580608-25.582655L634.214994 321.031621C648.34276 321.031621 659.793556 332.485487 659.793556 346.614276L659.793556 346.614276z" p-id="7066" fill="#ffffff"></path><path d="M659.793556 479.651244c0 14.131859-11.449773 25.582655-25.578562 25.582655L327.215972 505.233899c-14.129812 0-25.580608-11.450796-25.580608-25.582655l0 0c0-14.129812 11.450796-25.582655 25.580608-25.582655L634.214994 454.068589C648.34276 454.068589 659.793556 465.521432 659.793556 479.651244L659.793556 479.651244z" p-id="7067" fill="#ffffff"></path></svg>