<svg xmlns="http://www.w3.org/2000/svg" viewBox="0 0 375 296"><defs><linearGradient id="a" x1="50%" x2="50%" y1="95.5%" y2="4.603%"><stop offset="0%" stop-color="#FAFAFA"/><stop offset="100%" stop-color="#FAFAFA"/></linearGradient></defs><g fill="url(#a)" fill-rule="evenodd"><path d="M248 153h117v133H248V153zm59 121c14.912 0 27-12.088 27-27s-12.088-27-27-27-27 12.088-27 27 12.088 27 27 27zm-34-106v18h68v-18h-68zm9 23v14h50v-14h-50zM129 153h116v133H129V153zm58 121c14.912 0 27-12.088 27-27s-12.088-27-27-27-27 12.088-27 27 12.088 27 27 27zm-34-106v18h68v-18h-68zm9 23v14h50v-14h-50zM10 153h116v133H10V153zm58 121c14.912 0 27-12.088 27-27s-12.088-27-27-27-27 12.088-27 27 12.088 27 27 27zM34 168v18h68v-18H34zm9 23v14h50v-14H43zM189 10h176v140H189V10zm138 129c14.912 0 27-12.088 27-27s-12.088-27-27-27-27 12.088-27 27 12.088 27 27 27zM202 22v18h68V22h-68zm0 24v14h89V46h-89zm0 20v14h78V66h-78zM10 10h176v140H10V10zm137 129c14.912 0 27-12.088 27-27s-12.088-27-27-27-27 12.088-27 27 12.088 27 27 27zM25 22v18h68V22H25zm0 24v14h89V46H25zm0 20v14h78V66H25z"/></g></svg>